<svg width="36" height="79" viewBox="0 0 36 79" fill="none" xmlns="http://www.w3.org/2000/svg">
<path d="M36 20.9499L36 36L20.3899 36C14.9822 36 9.79591 33.7932 5.97207 29.8652C2.14823 25.9371 1.90735e-06 20.6095 1.90735e-06 15.0544L1.90735e-06 0L15.5976 0C21.005 0.00113097 26.1906 2.20828 30.0142 6.1361C33.8378 10.0639 35.9864 15.3908 35.9875 20.9456L36 20.9499Z" fill="#ACA0D0"/>
<path d="M15.0501 79L-1.61732e-06 79L-9.16028e-07 62.9563C-6.73083e-07 57.3983 2.20678 52.068 6.13485 48.138C10.0629 44.2079 15.3905 42 20.9456 42L36 42L36 58.0309C35.9989 63.5885 33.7917 68.9182 29.8639 72.848C25.9361 76.7778 20.6092 78.9861 15.0544 78.9872L15.0501 79Z" fill="#9EBBDA"/>
</svg>
