<svg width="45" height="45" viewBox="0 0 45 45" fill="none" xmlns="http://www.w3.org/2000/svg">
<path d="M33.602 11.913C33.602 11.913 33.5841 11.913 33.5752 11.913C33.5886 11.6756 33.602 11.4381 33.602 11.2007C33.602 5.01342 28.5886 0 22.4014 0C16.2141 0 11.2007 5.01342 11.2007 11.2007C11.2007 11.4426 11.2096 11.6801 11.2276 11.913C11.2186 11.913 11.2096 11.913 11.2007 11.913C5.01342 11.913 0 16.9309 0 23.1137C0 29.2965 5.01342 34.3144 11.2007 34.3144C11.2096 34.3144 11.2186 34.3144 11.2276 34.3144C11.5949 40.1701 16.456 44.8027 22.4014 44.8027C28.3467 44.8027 33.2078 40.1701 33.5752 34.3144C33.5841 34.3144 33.5931 34.3144 33.602 34.3144C39.7893 34.3144 44.8027 29.301 44.8027 23.1137C44.8027 16.9265 39.7893 11.913 33.602 11.913ZM22.4014 26.8816C19.9282 26.8816 17.9211 24.8745 17.9211 22.4014C17.9211 19.9282 19.9282 17.9211 22.4014 17.9211C24.8745 17.9211 26.8816 19.9282 26.8816 22.4014C26.8816 24.8745 24.8745 26.8816 22.4014 26.8816Z" fill="#FFC700"/>
</svg>
